<svg xmlns="http://www.w3.org/2000/svg" viewBox="0 0 24 24"><path d="M15.367 17.366c.96.367 2.032.572 3.162.572h1.091l.065-2.624H24V22h-4.885c-2.662 0-5.129-.685-7.152-1.842l-.067.038c-1.997 1.08-4.411 1.712-7.011 1.712H0v-6.621h4.315v2.72h1.156a9.12 9.12 0 0 0 3.155-.552l.072-.024c-1.289-1.582-2.039-3.464-2.039-5.463 0-1.963.723-3.792 1.968-5.33l-.101-.045a8.905 8.905 0 0 0-3.055-.532H4.38l-.065 6.88H0V2h4.885c2.616 0 5.044.662 7.048 1.782l.1.06c2.011-1.104 4.451-1.75 7.082-1.75H24v5.907h-4.315V5.993h-1.156a9.1 9.1 0 0 0-3.231.581l.067.072c1.251 1.566 1.976 3.419 1.976 5.387 0 1.936-.703 3.742-1.917 5.266l-.057.067zm-3.415-8.264c-.572.838-.896 1.796-.896 2.816 0 1.074.361 2.091.99 2.974l.039-.048c.549-.825.86-1.765.86-2.763 0-1.047-.344-2.041-.945-2.908l-.048-.071z"/></svg>